<mxfile host="app.diagrams.net" agent="Mozilla/5.0 (X11; Ubuntu; Linux x86_64; rv:137.0) Gecko/20100101 Firefox/137.0" version="26.2.12">
  <diagram name="Page-1" id="xY5I4I44ts_mf8zgmSEU">
    <mxGraphModel dx="1110" dy="1012" grid="1" gridSize="10" guides="1" tooltips="1" connect="1" arrows="1" fold="1" page="0" pageScale="1" pageWidth="850" pageHeight="1100" background="none" math="0" shadow="1">
      <root>
        <mxCell id="0" />
        <mxCell id="1" parent="0" />
        <mxCell id="Lg4vJn_z4JaIjgyK1PNi-2" value="" style="group;aspect=fixed;fillColor=#f5f5f5;strokeColor=none;fontColor=#333333;container=0;" vertex="1" connectable="0" parent="1">
          <mxGeometry x="60" y="-160" width="680" height="400" as="geometry" />
        </mxCell>
        <mxCell id="Lg4vJn_z4JaIjgyK1PNi-1" value="" style="rounded=0;whiteSpace=wrap;html=1;fillColor=#f5f5f5;strokeColor=none;fontColor=#333333;container=0;gradientColor=none;" vertex="1" parent="1">
          <mxGeometry x="60" y="-160" width="680" height="400" as="geometry" />
        </mxCell>
        <mxCell id="Lg4vJn_z4JaIjgyK1PNi-3" value="" style="whiteSpace=wrap;html=1;aspect=fixed;container=0;" vertex="1" parent="1">
          <mxGeometry x="500" y="140" width="80" height="80" as="geometry" />
        </mxCell>
        <mxCell id="TiphN_sPVIGOEfczwjxO-2" value="" style="sketch=0;aspect=fixed;pointerEvents=1;shadow=0;dashed=0;html=1;strokeColor=none;labelPosition=center;verticalLabelPosition=bottom;verticalAlign=top;align=center;shape=mxgraph.mscae.enterprise.website_generic;fillColor=#3399FF;container=0;labelBackgroundColor=default;fontSize=13;" parent="1" vertex="1">
          <mxGeometry x="513.18" y="146" width="56.82" height="50" as="geometry" />
        </mxCell>
        <mxCell id="AeYlqpH33_8kjzqwwGj_-45" value="" style="whiteSpace=wrap;html=1;aspect=fixed;strokeColor=default;movable=1;resizable=1;rotatable=1;deletable=1;editable=1;locked=0;connectable=1;container=0;" parent="1" vertex="1">
          <mxGeometry x="360" width="80" height="80" as="geometry" />
        </mxCell>
        <mxCell id="6Xl2XuR8jxxcP_V0MIbQ-1" value="Lambda" style="sketch=0;points=[[0,0,0],[0.25,0,0],[0.5,0,0],[0.75,0,0],[1,0,0],[0,1,0],[0.25,1,0],[0.5,1,0],[0.75,1,0],[1,1,0],[0,0.25,0],[0,0.5,0],[0,0.75,0],[1,0.25,0],[1,0.5,0],[1,0.75,0]];outlineConnect=0;fillColor=#ED7100;strokeColor=#ffffff;dashed=0;verticalLabelPosition=middle;verticalAlign=bottom;align=center;html=1;shape=mxgraph.aws4.resourceIcon;resIcon=mxgraph.aws4.lambda;aspect=fixed;textShadow=0;labelPosition=center;container=0;labelBackgroundColor=default;fontSize=13;labelBorderColor=#FFFFFF;" parent="1" vertex="1">
          <mxGeometry x="219.99" y="140" width="80" height="80" as="geometry" />
        </mxCell>
        <mxCell id="AeYlqpH33_8kjzqwwGj_-26" value="" style="edgeStyle=orthogonalEdgeStyle;rounded=0;orthogonalLoop=1;jettySize=auto;html=1;" parent="1" source="6Xl2XuR8jxxcP_V0MIbQ-2" edge="1">
          <mxGeometry relative="1" as="geometry">
            <mxPoint x="500" y="179.79310344827582" as="targetPoint" />
          </mxGeometry>
        </mxCell>
        <mxCell id="6Xl2XuR8jxxcP_V0MIbQ-2" value="API Gateway" style="sketch=0;points=[[0,0,0],[0.25,0,0],[0.5,0,0],[0.75,0,0],[1,0,0],[0,1,0],[0.25,1,0],[0.5,1,0],[0.75,1,0],[1,1,0],[0,0.25,0],[0,0.5,0],[0,0.75,0],[1,0.25,0],[1,0.5,0],[1,0.75,0]];outlineConnect=0;fillColor=#8C4FFF;strokeColor=#ffffff;dashed=0;verticalLabelPosition=middle;verticalAlign=bottom;align=center;html=1;shape=mxgraph.aws4.resourceIcon;resIcon=mxgraph.aws4.api_gateway;aspect=fixed;labelPosition=center;container=0;labelBackgroundColor=default;fontSize=13;labelBorderColor=#FFFFFF;" parent="1" vertex="1">
          <mxGeometry x="360" y="140" width="80" height="80" as="geometry" />
        </mxCell>
        <mxCell id="AeYlqpH33_8kjzqwwGj_-31" value="" style="edgeStyle=orthogonalEdgeStyle;rounded=0;orthogonalLoop=1;jettySize=auto;html=1;" parent="1" source="AeYlqpH33_8kjzqwwGj_-1" target="AeYlqpH33_8kjzqwwGj_-2" edge="1">
          <mxGeometry relative="1" as="geometry" />
        </mxCell>
        <mxCell id="AeYlqpH33_8kjzqwwGj_-1" value="CloudFront" style="sketch=0;points=[[0,0,0],[0.25,0,0],[0.5,0,0],[0.75,0,0],[1,0,0],[0,1,0],[0.25,1,0],[0.5,1,0],[0.75,1,0],[1,1,0],[0,0.25,0],[0,0.5,0],[0,0.75,0],[1,0.25,0],[1,0.5,0],[1,0.75,0]];outlineConnect=0;fillColor=#8C4FFF;strokeColor=#ffffff;dashed=0;verticalLabelPosition=middle;verticalAlign=bottom;align=center;html=1;shape=mxgraph.aws4.resourceIcon;resIcon=mxgraph.aws4.cloudfront;aspect=fixed;labelPosition=center;container=0;labelBackgroundColor=default;fontSize=13;labelBorderColor=#FFFFFF;" parent="1" vertex="1">
          <mxGeometry x="640" width="80" height="80" as="geometry" />
        </mxCell>
        <mxCell id="AeYlqpH33_8kjzqwwGj_-30" value="" style="edgeStyle=orthogonalEdgeStyle;rounded=0;orthogonalLoop=1;jettySize=auto;html=1;" parent="1" source="AeYlqpH33_8kjzqwwGj_-2" edge="1">
          <mxGeometry relative="1" as="geometry">
            <mxPoint x="580" y="179.79310344827582" as="targetPoint" />
          </mxGeometry>
        </mxCell>
        <mxCell id="AeYlqpH33_8kjzqwwGj_-2" value="Route53" style="sketch=0;points=[[0,0,0],[0.25,0,0],[0.5,0,0],[0.75,0,0],[1,0,0],[0,1,0],[0.25,1,0],[0.5,1,0],[0.75,1,0],[1,1,0],[0,0.25,0],[0,0.5,0],[0,0.75,0],[1,0.25,0],[1,0.5,0],[1,0.75,0]];outlineConnect=0;fillColor=#8C4FFF;strokeColor=#ffffff;dashed=0;verticalLabelPosition=middle;verticalAlign=bottom;align=center;html=1;shape=mxgraph.aws4.resourceIcon;resIcon=mxgraph.aws4.route_53;aspect=fixed;labelPosition=center;shadow=0;container=0;labelBackgroundColor=default;fontSize=13;labelBorderColor=#FFFFFF;" parent="1" vertex="1">
          <mxGeometry x="640" y="140" width="80" height="80" as="geometry" />
        </mxCell>
        <mxCell id="AeYlqpH33_8kjzqwwGj_-18" style="edgeStyle=orthogonalEdgeStyle;rounded=0;orthogonalLoop=1;jettySize=auto;html=1;" parent="1" source="AeYlqpH33_8kjzqwwGj_-3" edge="1">
          <mxGeometry relative="1" as="geometry">
            <mxPoint x="220" y="179" as="targetPoint" />
          </mxGeometry>
        </mxCell>
        <mxCell id="AeYlqpH33_8kjzqwwGj_-3" value="DynamoDB" style="sketch=0;points=[[0,0,0],[0.25,0,0],[0.5,0,0],[0.75,0,0],[1,0,0],[0,1,0],[0.25,1,0],[0.5,1,0],[0.75,1,0],[1,1,0],[0,0.25,0],[0,0.5,0],[0,0.75,0],[1,0.25,0],[1,0.5,0],[1,0.75,0]];outlineConnect=0;fillColor=#4D70EE;strokeColor=#ffffff;dashed=0;verticalLabelPosition=middle;verticalAlign=bottom;align=center;html=1;shape=mxgraph.aws4.resourceIcon;resIcon=mxgraph.aws4.dynamodb;aspect=fixed;labelPosition=center;container=0;labelBackgroundColor=default;fontSize=13;labelBorderColor=#FFFFFF;" parent="1" vertex="1">
          <mxGeometry x="80" y="140" width="80" height="80" as="geometry" />
        </mxCell>
        <mxCell id="AeYlqpH33_8kjzqwwGj_-35" value="" style="edgeStyle=orthogonalEdgeStyle;rounded=0;orthogonalLoop=1;jettySize=auto;html=1;" parent="1" edge="1">
          <mxGeometry relative="1" as="geometry">
            <mxPoint x="300" y="40" as="sourcePoint" />
            <mxPoint x="360" y="40.028571428571354" as="targetPoint" />
          </mxGeometry>
        </mxCell>
        <mxCell id="AeYlqpH33_8kjzqwwGj_-36" value="" style="edgeStyle=orthogonalEdgeStyle;rounded=0;orthogonalLoop=1;jettySize=auto;html=1;" parent="1" target="AeYlqpH33_8kjzqwwGj_-14" edge="1">
          <mxGeometry relative="1" as="geometry">
            <mxPoint x="260" as="sourcePoint" />
          </mxGeometry>
        </mxCell>
        <mxCell id="AeYlqpH33_8kjzqwwGj_-37" value="" style="edgeStyle=orthogonalEdgeStyle;rounded=0;orthogonalLoop=1;jettySize=auto;html=1;" parent="1" source="AeYlqpH33_8kjzqwwGj_-6" edge="1">
          <mxGeometry relative="1" as="geometry">
            <mxPoint x="220" y="40" as="targetPoint" />
          </mxGeometry>
        </mxCell>
        <mxCell id="AeYlqpH33_8kjzqwwGj_-6" value="GitHub" style="dashed=0;outlineConnect=0;align=center;labelPosition=center;verticalLabelPosition=middle;verticalAlign=bottom;shape=mxgraph.weblogos.github;aspect=fixed;html=1;container=0;labelBackgroundColor=default;fontSize=13;labelBorderColor=#FFFFFF;" parent="1" vertex="1">
          <mxGeometry x="80" width="80" height="80" as="geometry" />
        </mxCell>
        <mxCell id="AeYlqpH33_8kjzqwwGj_-34" value="" style="edgeStyle=orthogonalEdgeStyle;rounded=0;orthogonalLoop=1;jettySize=auto;html=1;" parent="1" target="AeYlqpH33_8kjzqwwGj_-8" edge="1">
          <mxGeometry relative="1" as="geometry">
            <mxPoint x="440" y="40" as="sourcePoint" />
          </mxGeometry>
        </mxCell>
        <mxCell id="AeYlqpH33_8kjzqwwGj_-38" style="edgeStyle=orthogonalEdgeStyle;rounded=0;orthogonalLoop=1;jettySize=auto;html=1;" parent="1" edge="1">
          <mxGeometry relative="1" as="geometry">
            <mxPoint x="120" y="80" as="targetPoint" />
            <mxPoint x="399" y="80" as="sourcePoint" />
            <Array as="points">
              <mxPoint x="399" y="110" />
              <mxPoint x="120" y="110" />
            </Array>
          </mxGeometry>
        </mxCell>
        <mxCell id="AeYlqpH33_8kjzqwwGj_-33" value="" style="edgeStyle=orthogonalEdgeStyle;rounded=0;orthogonalLoop=1;jettySize=auto;html=1;" parent="1" source="AeYlqpH33_8kjzqwwGj_-8" target="AeYlqpH33_8kjzqwwGj_-1" edge="1">
          <mxGeometry relative="1" as="geometry" />
        </mxCell>
        <mxCell id="AeYlqpH33_8kjzqwwGj_-8" value="S3" style="sketch=0;points=[[0,0,0],[0.25,0,0],[0.5,0,0],[0.75,0,0],[1,0,0],[0,1,0],[0.25,1,0],[0.5,1,0],[0.75,1,0],[1,1,0],[0,0.25,0],[0,0.5,0],[0,0.75,0],[1,0.25,0],[1,0.5,0],[1,0.75,0]];outlineConnect=0;fillColor=#7AA116;strokeColor=#ffffff;dashed=0;verticalLabelPosition=middle;verticalAlign=bottom;align=center;html=1;shape=mxgraph.aws4.resourceIcon;resIcon=mxgraph.aws4.s3;aspect=fixed;labelPosition=center;textShadow=0;container=0;labelBackgroundColor=default;fontSize=13;labelBorderColor=#FFFFFF;" parent="1" vertex="1">
          <mxGeometry x="500" width="80" height="80" as="geometry" />
        </mxCell>
        <mxCell id="AeYlqpH33_8kjzqwwGj_-32" value="" style="edgeStyle=orthogonalEdgeStyle;rounded=0;orthogonalLoop=1;jettySize=auto;html=1;" parent="1" source="AeYlqpH33_8kjzqwwGj_-10" target="AeYlqpH33_8kjzqwwGj_-1" edge="1">
          <mxGeometry relative="1" as="geometry" />
        </mxCell>
        <mxCell id="AeYlqpH33_8kjzqwwGj_-10" value="ACM" style="sketch=0;points=[[0,0,0],[0.25,0,0],[0.5,0,0],[0.75,0,0],[1,0,0],[0,1,0],[0.25,1,0],[0.5,1,0],[0.75,1,0],[1,1,0],[0,0.25,0],[0,0.5,0],[0,0.75,0],[1,0.25,0],[1,0.5,0],[1,0.75,0]];outlineConnect=0;fillColor=#DD344C;strokeColor=#ffffff;dashed=0;verticalLabelPosition=middle;verticalAlign=bottom;align=center;html=1;shape=mxgraph.aws4.resourceIcon;resIcon=mxgraph.aws4.certificate_manager_3;aspect=fixed;labelPosition=center;textShadow=0;container=0;labelBackgroundColor=default;fontSize=13;labelBorderColor=#FFFFFF;" parent="1" vertex="1">
          <mxGeometry x="640" y="-140" width="80" height="80" as="geometry" />
        </mxCell>
        <mxCell id="AeYlqpH33_8kjzqwwGj_-27" value="" style="edgeStyle=orthogonalEdgeStyle;rounded=0;orthogonalLoop=1;jettySize=auto;html=1;" parent="1" target="6Xl2XuR8jxxcP_V0MIbQ-2" edge="1">
          <mxGeometry relative="1" as="geometry">
            <mxPoint x="500" y="179.79310344827582" as="sourcePoint" />
          </mxGeometry>
        </mxCell>
        <mxCell id="AeYlqpH33_8kjzqwwGj_-14" value="TEST" style="fontSize=13;fontFamily=Courier New;aspect=fixed;labelBackgroundColor=none;labelBorderColor=none;html=1;verticalAlign=bottom;container=0;" parent="1" vertex="1">
          <mxGeometry x="219.99" y="-140" width="80" height="80" as="geometry" />
        </mxCell>
        <mxCell id="AeYlqpH33_8kjzqwwGj_-17" style="edgeStyle=orthogonalEdgeStyle;rounded=0;orthogonalLoop=1;jettySize=auto;html=1;entryX=1;entryY=0.5;entryDx=0;entryDy=0;entryPerimeter=0;" parent="1" source="6Xl2XuR8jxxcP_V0MIbQ-1" target="AeYlqpH33_8kjzqwwGj_-3" edge="1">
          <mxGeometry relative="1" as="geometry" />
        </mxCell>
        <mxCell id="AeYlqpH33_8kjzqwwGj_-19" style="edgeStyle=orthogonalEdgeStyle;rounded=0;orthogonalLoop=1;jettySize=auto;html=1;entryX=0;entryY=0.5;entryDx=0;entryDy=0;entryPerimeter=0;" parent="1" source="6Xl2XuR8jxxcP_V0MIbQ-1" target="6Xl2XuR8jxxcP_V0MIbQ-2" edge="1">
          <mxGeometry relative="1" as="geometry" />
        </mxCell>
        <mxCell id="AeYlqpH33_8kjzqwwGj_-25" style="edgeStyle=orthogonalEdgeStyle;rounded=0;orthogonalLoop=1;jettySize=auto;html=1;entryX=1;entryY=0.5;entryDx=0;entryDy=0;entryPerimeter=0;" parent="1" source="6Xl2XuR8jxxcP_V0MIbQ-2" target="6Xl2XuR8jxxcP_V0MIbQ-1" edge="1">
          <mxGeometry relative="1" as="geometry" />
        </mxCell>
        <mxCell id="AeYlqpH33_8kjzqwwGj_-39" value="&lt;div&gt;CI/CD&lt;/div&gt;" style="html=1;fontSize=13;fontFamily=Courier New;aspect=fixed;verticalAlign=bottom;labelBackgroundColor=none;labelBorderColor=none;container=0;" parent="1" vertex="1">
          <mxGeometry x="219.99" width="80" height="80" as="geometry" />
        </mxCell>
        <mxCell id="AeYlqpH33_8kjzqwwGj_-44" value="" style="shape=image;verticalLabelPosition=bottom;labelBackgroundColor=default;verticalAlign=top;aspect=fixed;imageAspect=0;editableCssRules=.*;image=data:image/svg+xml,PHN2ZyBmaWxsPSJub25lIiB2aWV3Qm94PSI2MC4xODIwOTgzODg2NzE4NzUgNS41NzA1NTk5Nzg0ODUxMDcgOTI2LjY3Mjg1MTU2MjUgMjM3LjIwMDQzOTQ1MzEyNSIgaGVpZ2h0PSIyMzcuMjAwNDM5NDUzMTI1IiB3aWR0aD0iOTI2LjY3Mjg1MTU2MjUiIHhtbG5zPSJodHRwOi8vd3d3LnczLm9yZy8yMDAwL3N2ZyI+JiN4YTs8cGF0aCBmaWxsPSIjQTA2N0RBIiBkPSJNMTI0LjkxOSA2Ni4yNDQ0TDE4My4yNTcgMTAwLjExOVYxNjcuODY5TDEyNC45MTkgMTMzLjk5NFY2Ni4yNDQ0WiIgY2xpcC1ydWxlPSJldmVub2RkIiBmaWxsLXJ1bGU9ImV2ZW5vZGQiLz4mI3hhOzxwYXRoIGZpbGw9IiNBMDY3REEiIGQ9Ik0xOTAuMDMyIDEwMC4xMTlWMTY3Ljg2OUwyNDguMzcgMTMzLjk5NFY2Ni4yNDQ0TDE5MC4wMzIgMTAwLjExOVoiIGNsaXAtcnVsZT0iZXZlbm9kZCIgZmlsbC1ydWxlPSJldmVub2RkIi8+JiN4YTs8cGF0aCBmaWxsPSIjQTA2N0RBIiBkPSJNNjAuMTgyMSAyOC4yMjkxVjk1Ljk3OTFMMTE4LjUyIDEyOS44NTRWNjIuMTA0MUw2MC4xODIxIDI4LjIyOTFaIiBjbGlwLXJ1bGU9ImV2ZW5vZGQiIGZpbGwtcnVsZT0iZXZlbm9kZCIvPiYjeGE7PHBhdGggZmlsbD0iI0EwNjdEQSIgZD0iTTEyNC45MTkgMjA4Ljg5NkwxODMuMjU3IDI0Mi43NzFWMTc1LjM5N0wxMjQuOTE5IDE0MS41MjJWMjA4Ljg5NloiIGNsaXAtcnVsZT0iZXZlbm9kZCIgZmlsbC1ydWxlPSJldmVub2RkIi8+JiN4YTs8cGF0aCBmaWxsPSIjMEQwRTEyIiBkPSJNMzE3LjYyMyA3LjAwMDg1SDMyNS40ODlWMjQuNzI4OEgzNDQuNjg0VjcuMDAwODVIMzUyLjU1MVY1MC4wOTc0SDM0NC42ODRWMzEuODgwMkgzMjUuNDg5VjUwLjA5NzRIMzE3LjYyM1Y3LjAwMDg1WiIvPiYjeGE7PHBhdGggZmlsbD0iIzBEMEUxMiIgZD0iTTM1Ny4xNDIgNDEuNzQxNUMzNTcuMTQyIDM1LjI2NzYgMzYxLjc3MiAzMy4xOTc0IDM2Ny4yMjkgMzEuODgwMUwzNzYuNzE0IDI5LjY1OTRWMjguOTgxOUMzNzYuNzE0IDI1LjcwNzMgMzc0LjU2OCAyMy42NzQ4IDM3MS4yMTkgMjMuNjc0OEMzNjcuODY5IDIzLjY3NDggMzY1LjkxMiAyNS41MTkxIDM2NS4yMzQgMjguNDkyNkwzNTguNDYgMjcuNzAyMkMzNTkuNTEzIDIxLjg2ODEgMzY0LjQ0NCAxOC4xMDQyIDM3MS41MiAxOC4xMDQyQzM3OS4yNzMgMTguMTA0MiAzODQuMzE2IDIyLjk1OTcgMzg0LjMxNiAzMC4xMTExVjQyLjk4MzZDMzg0LjMxNiA0My43NzQgMzg0LjU4IDQ0LjA3NTEgMzg1LjEwNyA0NC4wNzUxSDM4Ni44MzhWNTAuMDk3M0gzODIuMjA5QzM3OS4xOTggNTAuMDk3MyAzNzcuODggNDkuMTU2MyAzNzcuODggNDYuNjM0NUMzNzcuODggNDUuODgxNyAzNzcuOTkzIDQ0Ljk3ODQgMzc4LjI5NCA0My44NDkyTDM3Ny42MTcgNDMuNjYxMUMzNzUuMzk2IDQ4LjQwMzYgMzcyLjEyMiA1MC41NDkgMzY3LjM4IDUwLjU0OUMzNjEuMTY5IDUwLjU0OSAzNTcuMDI5IDQ3LjA4NjIgMzU3LjAyOSA0MS42NjYyTDM1Ny4xNDIgNDEuNzQxNVpNMzY5LjUyNSA0NC45Nzg0QzM3My43NzggNDQuOTc4NCAzNzYuNzE0IDQxLjg5MiAzNzYuNzE0IDM3LjAzNjZWMzQuNjI3N0wzNjkuNzUxIDM2LjI4MzhDMzY2LjI4OCAzNy4wNzQyIDM2NC44MiAzOC4yNDExIDM2NC44MiA0MC45NTExQzM2NC44MiA0My4zOTc2IDM2Ni42NjQgNDQuOTQwOCAzNjkuNDg3IDQ0Ljk0MDhMMzY5LjUyNSA0NC45Nzg0WiIvPiYjeGE7PHBhdGggZmlsbD0iIzBEMEUxMiIgZD0iTTM4OS4xNzIgNDEuNTkxTDM5Ni4zNjEgNDAuMTIzMUMzOTcuMTUxIDQzLjU4NTkgMzk5LjkzNiA0NS4yNzk2IDQwMy41MTIgNDUuMjc5NkM0MDcuMDg3IDQ1LjI3OTYgNDA5LjE1NyA0My43MzY0IDQwOS4xNTcgNDEuMzI3NUM0MDkuMTU3IDM4LjgwNTcgNDA2Ljc0OSAzOC4zMTY0IDQwMi4xOTQgMzcuNDUwN0MzOTYuNjk5IDM2LjU4NSAzODkuNDM1IDM1LjYwNjQgMzg5LjQzNSAyNy44OTA0QzM4OS40MzUgMjIuMDU2NCAzOTQuNDAzIDE4LjAyOTEgNDAyLjQyIDE4LjAyOTFDNDA5LjU3MSAxOC4wMjkxIDQxNS4xMDQgMjEuMDQwMiA0MTYuMzg0IDI3LjA2MjRMNDA5LjEyIDI4LjIyOTJDNDA4LjM2NyAyNS4xNDI4IDQwNS44MDggMjMuNDg2NyA0MDIuNDIgMjMuNDg2N0MzOTguNzMyIDIzLjQ4NjcgMzk2Ljg4OCAyNS4xMDUyIDM5Ni44ODggMjcuMTc1M0MzOTYuODg4IDI5LjY5NzEgMzk5LjMzNCAzMC4yNjE3IDQwMy44NTEgMzEuMDUyMUM0MDkuMzgzIDMxLjkxNzggNDE2LjYxIDMyLjk3MTcgNDE2LjYxIDQwLjY1QzQxNi42MSA0Ni42NzIyIDQxMS42NzkgNTAuNjk5NiA0MDMuNTEyIDUwLjY5OTZDMzk1Ljk4NCA1MC42OTk2IDM5MC41MjcgNDcuNjg4NSAzODkuMTcyIDQxLjUxNTdWNDEuNTkxWiIvPiYjeGE7PHBhdGggZmlsbD0iIzBEMEUxMiIgZD0iTTQyOC41NzggNTAuMDk3NEg0MjAuOVY1Ljc1ODc5SDQyOC41NzhWMTkuNjg1MkM0MjguNTc4IDIxLjMwMzYgNDI4LjI3NyAyMi44MDkyIDQyNy44MjYgMjUuMTA1Mkw0MjguNTc4IDI1LjI5MzRDNDMwLjQ5OCAyMC43MzkxIDQzMy40MzQgMTguMTA0MyA0MzguODE2IDE4LjEwNDNDNDQ1LjY2NiAxOC4xMDQzIDQ0OS4yNzkgMjIuNDMyOCA0NDkuMjc5IDI5LjczNDhWNTAuMDk3NEg0NDEuNjAxVjI5Ljk2MDZDNDQxLjYwMSAyNi4yNzIgNDM5Ljc1NyAyNC4xNjQyIDQzNi4wNjggMjQuMTY0MkM0MzEuOTI4IDI0LjE2NDIgNDI4LjYxNiAyNy4yODgyIDQyOC42MTYgMzIuOTcxN1Y1MC4wOTc0SDQyOC41NzhaIi8+JiN4YTs8cGF0aCBmaWxsPSIjMEQwRTEyIiBkPSJNNDY0Ljg2MSA0Mi40MTlDNDY0Ljg2MSA0My42NjExIDQ2NS4yNzUgNDMuOTYyMiA0NjYuMjE2IDQzLjk2MjJINDY5Ljc5MlY1MC4xMzVINDYyLjcxNkM0NTkuMDY1IDUwLjEzNSA0NTcuMTgzIDQ4LjE3NzggNDU3LjE4MyA0NC40ODkyVjI0Ljk1NDZINDUyLjcwNFYxOC43ODE4SDQ2NC44OTlWNDIuNDE5SDQ2NC44NjFaTTQ1Ni4wNTQgMTAuMzEzMUM0NTYuMDU0IDcuNzE1OTcgNDU4LjE5OSA1LjU3MDU2IDQ2MC43MjEgNS41NzA1NkM0NjMuMzU2IDUuNTcwNTYgNDY1LjQ2MyA3LjcxNTk3IDQ2NS40NjMgMTAuMzEzMUM0NjUuNDYzIDEyLjkxMDEgNDYzLjM1NiAxNS4xMzA4IDQ2MC43MjEgMTUuMTMwOEM0NTguMDg2IDE1LjEzMDggNDU2LjA1NCAxMy4wMjMxIDQ1Ni4wNTQgMTAuMzEzMVoiLz4mI3hhOzxwYXRoIGZpbGw9IiMwRDBFMTIiIGQ9Ik00NzEuODI0IDI4LjU2NzlDNDcxLjgyNCAxNS42MjAxIDQ4MC4yNTUgNi4yODU2NCA0OTIuNTYyIDYuMjg1NjRDNTAyLjc5OSA2LjI4NTY0IDUwOS44NzUgMTIuMjcwMiA1MTEuODMyIDIwLjQzNzlMNTA0LjAwNCAyMi4yODIyQzUwMi4zODUgMTYuNDg1OCA0OTguNTg0IDEzLjE3MzYgNDkyLjU2MiAxMy4xNzM2QzQ4NC44ODQgMTMuMTczNiA0NzkuOTkxIDE5LjU3MjIgNDc5Ljk5MSAyOC41Njc5QzQ3OS45OTEgMzcuNTYzNiA0ODUuMDM1IDQzLjk2MjIgNDkyLjc4OCA0My45NjIyQzQ5OC45NiA0My45NjIyIDUwMi42ODcgNDAuNTc0NyA1MDQuMzA1IDM0LjQwMTlMNTExLjc1NyAzNS4yNjc2QzUwOS44MzggNDQuODY1NSA1MDIuNzI0IDUwLjg1MDEgNDkyLjY3NSA1MC44NTAxQzQ4MC4zNjcgNTAuODUwMSA0NzEuNzg2IDQxLjQ3OCA0NzEuNzg2IDI4LjU2NzlINDcxLjgyNFoiLz4mI3hhOzxwYXRoIGZpbGw9IiMwRDBFMTIiIGQ9Ik01MTQuNDI5IDM0LjQ3NzJDNTE0LjQyOSAyNC45MTY5IDUyMS4wMTYgMTguMTA0MiA1MzAuMzEyIDE4LjEwNDJDNTM5LjYwOSAxOC4xMDQyIDU0Ni4yNzEgMjQuOTU0NSA1NDYuMjcxIDM0LjQ3NzJDNTQ2LjI3MSA0My45OTk4IDUzOS41NzEgNTAuNzc0OCA1MzAuMzEyIDUwLjc3NDhDNTIxLjA1MyA1MC43NzQ4IDUxNC40MjkgNDMuOTk5OCA1MTQuNDI5IDM0LjQ3NzJaTTUzOC41NTUgMzQuNDc3MkM1MzguNTU1IDI4LjQ1NDkgNTM1LjI4IDI0LjM4OTkgNTMwLjMxMiAyNC4zODk5QzUyNS4zNDQgMjQuMzg5OSA1MjIuMDcgMjguNDU0OSA1MjIuMDcgMzQuNDc3MkM1MjIuMDcgNDAuNDk5NCA1MjUuMzgyIDQ0LjU2NDQgNTMwLjMxMiA0NC41NjQ0QzUzNS4yNDMgNDQuNTY0NCA1MzguNTU1IDQwLjQ5OTQgNTM4LjU1NSAzNC40NzcyWiIvPiYjeGE7PHBhdGggZmlsbD0iIzBEMEUxMiIgZD0iTTU1MC42MzcgMTguNzgxOUg1NTcuNzg4VjIwLjA2MTZDNTU3Ljc4OCAyMS43OTMgNTU3LjcxMyAyMy4xNDggNTU3LjIyMyAyNS41OTQ1TDU1Ny45NzYgMjUuNzgyN0M1NTkuMTQzIDIxLjY0MjQgNTYxLjI4OCAxOC43ODE5IDU2Ni4zMzIgMTguNzgxOUg1NjguNjI3VjI2LjMwOTZINTY1LjUwNEM1NjAuODc0IDI2LjMwOTYgNTU4LjM1MiAyOS4xMzI2IDU1OC4zNTIgMzQuMzI2N1Y1MC4xMzUxSDU1MC42NzRWMTguNzgxOUg1NTAuNjM3WiIvPiYjeGE7PHBhdGggZmlsbD0iIzBEMEUxMiIgZD0iTTU3MS42NzYgMTguNzgxN0g1NzkuMjQxVjIwLjMyNDlDNTc5LjI0MSAyMS43NTUyIDU3OS4xMjggMjIuODQ2NyA1NzguNjc2IDI1LjM2ODZMNTc5LjQyOSAyNS41NTY3QzU4MS4zNDkgMjAuNTEzMSA1ODQuOTYyIDE4LjEwNDIgNTg5LjU5MSAxOC4xMDQyQzU5Ny4yNjkgMTguMTA0MiA2MDMuMzI5IDI0LjM4OTkgNjAzLjMyOSAzNC40MDE5QzYwMy4zMjkgNDQuNDEzOCA1OTcuMzA3IDUwLjc3NDggNTg5LjU5MSA1MC43NzQ4QzU4NC45NjIgNTAuNzc0OCA1ODEuNTM3IDQ4LjM2NTkgNTc5LjU0MiA0My4zMjIzTDU3OC44NjUgNDMuNTg1OEM1NzkuMjQxIDQ2LjAzMjMgNTc5LjM1NCA0Ny4xOTkxIDU3OS4zNTQgNDguNTkxN1Y2Mi43NDRINTcxLjY3NlYxOC43ODE3Wk01OTUuNjg5IDM0LjQ3NzJDNTk1LjY4OSAyOC4xOTE1IDU5Mi4yMjYgMjQuMzg5OSA1ODcuNDg0IDI0LjM4OTlDNTgyLjc0MSAyNC4zODk5IDU3OS4yNzkgMjguMTkxNSA1NzkuMjc5IDM0LjQ3NzJDNTc5LjI3OSA0MC43NjI5IDU4Mi42NjYgNDQuNTY0NCA1ODcuNDg0IDQ0LjU2NDRDNTkyLjMwMSA0NC41NjQ0IDU5NS42ODkgNDAuNjg3NiA1OTUuNjg5IDM0LjQ3NzJaIi8+JiN4YTs8cGF0aCBmaWxsPSIjMEQwRTEyIiBkPSJNMzQ5LjUwMiAxMDIuNjc5SDMxNS42NjZWODYuMjMwN0g0MDIuODM0VjEwMi42NzlIMzY5LjE0OFYxOTEuOTU4SDM0OS41MDJWMTAyLjY3OVoiLz4mI3hhOzxwYXRoIGZpbGw9IiMwRDBFMTIiIGQ9Ik0zOTcuODI5IDE1My42MDRDMzk3LjgyOSAxMjkuNTkxIDQxMy44MjUgMTEzLjQ0NCA0MzUuMjc4IDExMy40NDRDNDU2LjczMSAxMTMuNDQ0IDQ3Mi43MjcgMTI4LjY4NyA0NzIuNzI3IDE1MS45NDhWMTU4LjkxMUg0MTYuMzg0QzQxNy40MzggMTcwLjg0MyA0MjQuNDAxIDE3OS4xNjEgNDM2LjAzMSAxNzkuMTYxQzQ0NC45NTEgMTc5LjE2MSA0NDkuOTE5IDE3NS4wOTYgNDUyLjkzIDE2Ny42ODFMNDcwLjI4MSAxNzAuMzkxQzQ2Ni4wNjUgMTg0LjU4MSA0NTUuMTg4IDE5My42NTIgNDM1Ljk5MyAxOTMuNjUyQzQxMy42MzYgMTkzLjY1MiAzOTcuNzkxIDE3Ny4wNTMgMzk3Ljc5MSAxNTMuNjQyTDM5Ny44MjkgMTUzLjYwNFpNNDE2LjcyMyAxNDUuODg4SDQ1My44NzFDNDUyLjUxNiAxMzQuNTU5IDQ0NS43MDQgMTI3Ljg5NyA0MzUuMjc4IDEyNy44OTdDNDI1LjQ1NSAxMjcuODk3IDQxOC4zNzkgMTM0Ljg2IDQxNi42ODUgMTQ1Ljg4OEg0MTYuNzIzWiIvPiYjeGE7PHBhdGggZmlsbD0iIzBEMEUxMiIgZD0iTTQ4Ny4xMDUgMTE1LjA2Mkg1MDQuNjQ0VjExOC4yMjRDNTA0LjY0NCAxMjIuNDM5IDUwNC40OTMgMTI1Ljc4OSA1MDMuMjg5IDEzMS44MTFMNTA1LjA5NSAxMzIuMjYzQzUwNy45NTYgMTIyLjEzOCA1MTMuMjYzIDExNS4wNjIgNTI1LjY0NSAxMTUuMDYySDUzMS4yMTZWMTMzLjUwNUg1MjMuNUM1MTIuMTcxIDEzMy41MDUgNTA1Ljk2MSAxNDAuNDY4IDUwNS45NjEgMTUzLjE1M1YxOTEuOTU4SDQ4Ny4wNjdWMTE1LjA2Mkg0ODcuMTA1WiIvPiYjeGE7PHBhdGggZmlsbD0iIzBEMEUxMiIgZD0iTTU0MS45MDUgMTE1LjA2Mkg1NTkuNDQ0VjExOC4yMjRDNTU5LjQ0NCAxMjIuNDM5IDU1OS4yOTMgMTI1Ljc4OSA1NTguMDg5IDEzMS44MTFMNTU5Ljg5NiAxMzIuMjYzQzU2Mi43NTYgMTIyLjEzOCA1NjguMDYzIDExNS4wNjIgNTgwLjQ0NiAxMTUuMDYySDU4Ni4wMTZWMTMzLjUwNUg1NzguM0M1NjYuOTcxIDEzMy41MDUgNTYwLjc2MSAxNDAuNDY4IDU2MC43NjEgMTUzLjE1M1YxOTEuOTU4SDU0MS44NjdWMTE1LjA2Mkg1NDEuOTA1WiIvPiYjeGE7PHBhdGggZmlsbD0iIzBEMEUxMiIgZD0iTTU4OS42MjkgMTcxLjQwOEM1ODkuNjI5IDE1NS41NjIgNjAwLjk1OCAxNTAuNDA1IDYxNC4zOTQgMTQ3LjI0M0w2MzcuNjU0IDE0MS44MjNWMTQwLjE2N0M2MzcuNjU0IDEzMi4xNSA2MzIuMzg1IDEyNy4xODIgNjI0LjIxOCAxMjcuMTgyQzYxNi4wNSAxMjcuMTgyIDYxMS4yMzMgMTMxLjY5OCA2MDkuNTc3IDEzOC45NjNMNTkyLjk3OSAxMzcuMDA2QzU5NS41MzggMTIyLjY2NSA2MDcuNjIgMTEzLjQ0NCA2MjUuMDA4IDExMy40NDRDNjQ0LjA1MyAxMTMuNDQ0IDY1Ni40MzUgMTI1LjM3NSA2NTYuNDM1IDE0Mi45MTVWMTc0LjQ5NEM2NTYuNDM1IDE3Ni40NTEgNjU3LjAzOCAxNzcuMjA0IDY1OC4zOTMgMTc3LjIwNEg2NjIuNjA4VjE5MS45OTZINjUxLjI3OUM2NDMuODY1IDE5MS45OTYgNjQwLjcwMyAxODkuNzM4IDY0MC43MDMgMTgzLjUyN0M2NDAuNzAzIDE4MS43MjEgNjQxLjAwNCAxNzkuNDYyIDY0MS43NTcgMTc2LjcxNUw2NDAuMTAxIDE3Ni4yNjNDNjM0LjY4MSAxODcuODkzIDYyNi42NjQgMTkzLjE2MyA2MTUuMDM0IDE5My4xNjNDNTk5Ljc5MSAxOTMuMTYzIDU4OS42NjcgMTg0LjY5NCA1ODkuNjY3IDE3MS40MDhINTg5LjYyOVpNNjIwLjAwMiAxNzkuNDI1QzYzMC40MjggMTc5LjQyNSA2MzcuNjkyIDE3MS44NTkgNjM3LjY5MiAxNTkuOTI4VjE1NC4wNTZMNjIwLjY0MiAxNTguMTIxQzYxMi4xNzQgMTYwLjA3OCA2MDguNTYxIDE2Mi45MzkgNjA4LjU2MSAxNjkuNjAxQzYwOC41NjEgMTc1LjY2MSA2MTMuMDc3IDE3OS40MjUgNjIwLjA0IDE3OS40MjVINjIwLjAwMloiLz4mI3hhOzxwYXRoIGZpbGw9IiMwRDBFMTIiIGQ9Ik02ODIuNjY5IDEzMC4xOTNINjY4Ljc4MVYxMTUuMUg2ODIuNjY5VjEwMy4xNjhDNjgyLjY2OSA4OS4yNzk1IDY4OS4xOCA4My4yMTk2IDcwNC4yNzMgODMuMjE5Nkg3MjEuMzIzVjk4LjE2MjJINzA3LjU4NUM3MDMuMDY5IDk4LjE2MjIgNzAxLjIyNCAxMDAuMjcgNzAxLjIyNCAxMDUuMjc2VjExNS4xSDcxOS4yMTVWMTMwLjE5M0g3MDEuNTI1VjE5MS45NThINjgyLjYzMVYxMzAuMTkzSDY4Mi42NjlaIi8+JiN4YTs8cGF0aCBmaWxsPSIjMEQwRTEyIiBkPSJNNzI1LjEyNCAxNTMuNjA0QzcyNS4xMjQgMTMwLjE5MyA3NDEuMjcgMTEzLjQ0NCA3NjQuMDc5IDExMy40NDRDNzg2Ljg4NyAxMTMuNDQ0IDgwMy4xODQgMTMwLjE5MyA4MDMuMTg0IDE1My42MDRDODAzLjE4NCAxNzcuMDE2IDc4Ni43MzcgMTkzLjYxNCA3NjQuMDc5IDE5My42MTRDNzQxLjQyMSAxOTMuNjE0IDcyNS4xMjQgMTc3LjAxNiA3MjUuMTI0IDE1My42MDRaTTc4NC4zMjggMTUzLjYwNEM3ODQuMzI4IDEzOC44MTIgNzc2LjMxMSAxMjguODM4IDc2NC4wNzkgMTI4LjgzOEM3NTEuODQ3IDEyOC44MzggNzQzLjgzIDEzOC44MTIgNzQzLjgzIDE1My42MDRDNzQzLjgzIDE2OC4zOTYgNzUxLjk5NyAxNzguMzcxIDc2NC4wNzkgMTc4LjM3MUM3NzYuMTYgMTc4LjM3MSA3ODQuMzI4IDE2OC4zOTYgNzg0LjMyOCAxNTMuNjA0WiIvPiYjeGE7PHBhdGggZmlsbD0iIzBEMEUxMiIgZD0iTTgxNy4xMSAxMTUuMDYySDgzNC42NDlWMTE4LjIyNEM4MzQuNjQ5IDEyMi40MzkgODM0LjQ5OSAxMjUuNzg5IDgzMy4yOTQgMTMxLjgxMUw4MzUuMTAxIDEzMi4yNjNDODM3Ljk2MiAxMjIuMTM4IDg0My4yNjggMTE1LjA2MiA4NTUuNjUxIDExNS4wNjJIODYxLjIyMlYxMzMuNTA1SDg1My41MDZDODQyLjE3NyAxMzMuNTA1IDgzNi4wMDQgMTQwLjQ2OCA4MzYuMDA0IDE1My4xNTNWMTkxLjk1OEg4MTcuMTFWMTE1LjA2MloiLz4mI3hhOzxwYXRoIGZpbGw9IiMwRDBFMTIiIGQ9Ik04NzEuOTEgMTE1LjA2Mkg4OTAuMzUzVjExOC4zNzRDODkwLjM1MyAxMjIuNDM5IDg5MC4wNTEgMTI1LjE4NyA4ODguOTk4IDEzMC42MDdMODkwLjgwNCAxMzEuMDU5Qzg5NC43MTggMTE5LjEyNyA5MDIuNDM0IDExMy40MDYgOTE0LjUxNiAxMTMuNDA2QzkyNi41OTcgMTEzLjQwNiA5MzQuNzY1IDExOC45NzcgOTM3LjYyNSAxMzAuNzU4SDkzOS4yODFDOTQzLjM0NiAxMTkuMTI3IDk1MS4wNjIgMTEzLjQwNiA5NjIuNTQxIDExMy40MDZDOTc4LjM4NyAxMTMuNDA2IDk4Ni44NTUgMTIzLjY4MSA5ODYuODU1IDE0MS4zMzRWMTkxLjkyMUg5NjkuMDE1VjE0MS45MzZDOTY5LjAxNSAxMzMuMTY2IDk2NC42NDkgMTI4LjM0OSA5NTYuNzgzIDEyOC4zNDlDOTQ2LjUwOCAxMjguMzQ5IDkzOS4yODEgMTM2Ljk2OCA5MzkuMjgxIDE0OS42NTJWMTkxLjk1OEg5MjAuMzg3VjE0MS45NzRDOTIwLjM4NyAxMzMuMjA0IDkxNi4xNzIgMTI4LjM4NiA5MDguMzA2IDEyOC4zODZDODk4LjE4MSAxMjguMzg2IDg5MC44MDQgMTM3LjAwNiA4OTAuODA0IDE0OS42OVYxOTEuOTk2SDg3MS45MVYxMTUuMVYxMTUuMDYyWiIvPiYjeGE7PC9zdmc+;clipPath=inset(8.44% 79.67% 0.65% 0%);movable=1;resizable=1;rotatable=1;deletable=1;editable=1;locked=0;connectable=1;container=0;" parent="1" vertex="1">
          <mxGeometry x="373.86" y="2" width="52.28" height="60" as="geometry" />
        </mxCell>
        <mxCell id="AeYlqpH33_8kjzqwwGj_-48" value="Terraform" style="text;align=center;verticalAlign=bottom;resizable=0;points=[];autosize=1;strokeColor=none;fillColor=none;fontFamily=Courier New;fontSize=13;labelBackgroundColor=none;labelBorderColor=none;fontColor=#000000;container=0;" parent="1" vertex="1">
          <mxGeometry x="355" y="50" width="90" height="30" as="geometry" />
        </mxCell>
        <mxCell id="AeYlqpH33_8kjzqwwGj_-50" value="" style="sketch=0;verticalLabelPosition=bottom;sketch=0;aspect=fixed;html=1;verticalAlign=top;strokeColor=none;fillColor=#60F68E;align=center;outlineConnect=0;pointerEvents=1;shape=mxgraph.citrix2.factory;strokeWidth=0;container=0;" parent="1" vertex="1">
          <mxGeometry x="234.99" y="6" width="50" height="49.415" as="geometry" />
        </mxCell>
        <mxCell id="AeYlqpH33_8kjzqwwGj_-58" value="" style="shape=mxgraph.signs.science.laboratory;html=1;pointerEvents=1;fillColor=#60F68E;strokeColor=none;verticalLabelPosition=bottom;verticalAlign=top;align=center;gradientColor=none;container=0;" parent="1" vertex="1">
          <mxGeometry x="234.99" y="-132" width="50" height="50" as="geometry" />
        </mxCell>
        <mxCell id="Lg4vJn_z4JaIjgyK1PNi-4" value="Website" style="text;html=1;align=center;verticalAlign=bottom;whiteSpace=wrap;rounded=0;fontFamily=Courier New;fontSize=13;labelBackgroundColor=none;labelBorderColor=none;container=0;" vertex="1" parent="1">
          <mxGeometry x="510" y="200" width="60" height="20" as="geometry" />
        </mxCell>
      </root>
    </mxGraphModel>
  </diagram>
</mxfile>
